<?xml version="1.0" encoding="UTF-8" standalone="no"?>
<!-- Created with Inkscape (http://www.inkscape.org/) -->

<svg
   xmlns:dc="http://purl.org/dc/elements/1.1/"
   xmlns:cc="http://creativecommons.org/ns#"
   xmlns:rdf="http://www.w3.org/1999/02/22-rdf-syntax-ns#"
   xmlns:svg="http://www.w3.org/2000/svg"
   xmlns="http://www.w3.org/2000/svg"
   xmlns:sodipodi="http://sodipodi.sourceforge.net/DTD/sodipodi-0.dtd"
   xmlns:inkscape="http://www.inkscape.org/namespaces/inkscape"
   width="43.504501mm"
   height="43.504501mm"
   viewBox="0 0 154.14981 154.14981"
   id="svg2"
   version="1.1"
   inkscape:version="0.91 r13725"
   sodipodi:docname="owl.svg"
   inkscape:export-filename="/Users/foo/owl.png"
   inkscape:export-xdpi="18.68"
   inkscape:export-ydpi="18.68">
  <defs
     id="defs4" />
  <sodipodi:namedview
     id="base"
     pagecolor="#ffffff"
     bordercolor="#666666"
     borderopacity="1.0"
     inkscape:pageopacity="0.0"
     inkscape:pageshadow="2"
     inkscape:zoom="1.4142136"
     inkscape:cx="104.34681"
     inkscape:cy="62.917279"
     inkscape:document-units="px"
     inkscape:current-layer="layer1"
     showgrid="false"
     inkscape:window-width="1276"
     inkscape:window-height="755"
     inkscape:window-x="4"
     inkscape:window-y="1"
     inkscape:window-maximized="1"
     fit-margin-top="0"
     fit-margin-left="0"
     fit-margin-right="0"
     fit-margin-bottom="0" />
  <metadata
     id="metadata7">
    <rdf:RDF>
      <cc:Work
         rdf:about="">
        <dc:format>image/svg+xml</dc:format>
        <dc:type
           rdf:resource="http://purl.org/dc/dcmitype/StillImage" />
        <dc:title></dc:title>
      </cc:Work>
    </rdf:RDF>
  </metadata>
  <g
     inkscape:label="Layer 1"
     inkscape:groupmode="layer"
     id="layer1"
     style="display:inline;opacity:0.83999999"
     transform="translate(-207.55576,-870.86147)">
    <path
       style="opacity:1;fill:#ffffff;fill-opacity:1;fill-rule:evenodd;stroke:none;stroke-width:2.63712096;stroke-linecap:round;stroke-linejoin:round;stroke-miterlimit:4;stroke-dasharray:none;stroke-dashoffset:0;stroke-opacity:1"
       id="path4240-5"
       sodipodi:type="arc"
       sodipodi:cx="323.59595"
       sodipodi:cy="948.78461"
       sodipodi:rx="25.895758"
       sodipodi:ry="24.523455"
       sodipodi:start="0"
       sodipodi:end="6.2773035"
       sodipodi:open="true"
       d="m 349.4917,948.78461 a 25.895758,24.523455 0 0 1 -25.85767,24.52343 25.895758,24.523455 0 0 1 -25.93373,-24.45131 25.895758,24.523455 0 0 1 25.78141,-24.59534 25.895758,24.523455 0 0 1 26.00955,24.37898" />
    <path
       style="display:inline;opacity:0.98299997;fill:none;fill-opacity:1;fill-rule:evenodd;stroke:#f6a41b;stroke-width:2.86583281;stroke-linecap:round;stroke-linejoin:round;stroke-miterlimit:4;stroke-dasharray:none;stroke-dashoffset:0;stroke-opacity:1"
       id="path4240-6-2"
       sodipodi:type="arc"
       sodipodi:cx="323.08926"
       sodipodi:cy="948.65839"
       sodipodi:rx="26.073462"
       sodipodi:ry="25.315823"
       sodipodi:start="0"
       sodipodi:end="6.2773035"
       sodipodi:open="true"
       d="m 349.16273,948.65839 a 26.073462,25.315823 0 0 1 -26.03513,25.31579 26.073462,25.315823 0 0 1 -26.11168,-25.24134 26.073462,25.315823 0 0 1 25.95832,-25.39003 26.073462,25.315823 0 0 1 26.18803,25.16667" />
    <path
       style="opacity:1;fill:none;fill-opacity:1;fill-rule:evenodd;stroke:#5f443d;stroke-width:8.94499969;stroke-linecap:butt;stroke-linejoin:round;stroke-miterlimit:4;stroke-dasharray:8.945, 8.945;stroke-dashoffset:13.0005579;stroke-opacity:1"
       id="path4257-9"
       sodipodi:type="arc"
       sodipodi:cx="323.05392"
       sodipodi:cy="948.70032"
       sodipodi:rx="32.077225"
       sodipodi:ry="31.21092"
       sodipodi:start="0"
       sodipodi:end="6.2773035"
       sodipodi:open="true"
       d="m 355.13115,948.70032 a 32.077225,31.21092 0 0 1 -32.03006,31.21088 32.077225,31.21092 0 0 1 -32.12425,-31.11909 32.077225,31.21092 0 0 1 31.93558,-31.30241 32.077225,31.21092 0 0 1 32.21817,31.02704" />
    <path
       style="opacity:1;fill:#060406;fill-opacity:1;fill-rule:evenodd;stroke:#000000;stroke-width:8.06682587;stroke-linecap:round;stroke-linejoin:round;stroke-miterlimit:4;stroke-dasharray:none;stroke-dashoffset:0;stroke-opacity:1"
       id="path4223-1"
       sodipodi:type="arc"
       sodipodi:cx="323.0892"
       sodipodi:cy="948.91095"
       sodipodi:rx="10.519746"
       sodipodi:ry="10.774956"
       sodipodi:start="0"
       sodipodi:end="6.2773035"
       sodipodi:open="true"
       d="m 333.60895,948.91095 a 10.519746,10.774956 0 0 1 -10.50428,10.77494 10.519746,10.774956 0 0 1 -10.53517,-10.74325 10.519746,10.774956 0 0 1 10.4733,-10.80654 10.519746,10.774956 0 0 1 10.56597,10.71147" />
    <path
       style="opacity:1;fill:none;fill-opacity:1;fill-rule:evenodd;stroke:#000000;stroke-width:2.75754189;stroke-linecap:round;stroke-linejoin:round;stroke-miterlimit:4;stroke-dasharray:none;stroke-dashoffset:12.99999905;stroke-opacity:1"
       id="path4259-2"
       sodipodi:type="arc"
       sodipodi:cx="323.06293"
       sodipodi:cy="949.11682"
       sodipodi:rx="37.263725"
       sodipodi:ry="36.388691"
       sodipodi:start="0"
       sodipodi:end="6.2773035"
       sodipodi:open="true"
       d="m 360.32665,949.11682 a 37.263725,36.388691 0 0 1 -37.20893,36.38865 37.263725,36.388691 0 0 1 -37.31836,-36.28163 37.263725,36.388691 0 0 1 37.09918,-36.49536 37.263725,36.388691 0 0 1 37.42747,36.17431" />
    <path
       style="opacity:1;fill:none;fill-opacity:1;fill-rule:evenodd;stroke:#5f443d;stroke-width:8.94461536;stroke-linecap:butt;stroke-linejoin:round;stroke-miterlimit:4;stroke-dasharray:8.9446157, 8.9446157;stroke-dashoffset:12.99999905;stroke-opacity:1"
       id="path4257"
       sodipodi:type="arc"
       sodipodi:cx="246.18925"
       sodipodi:cy="948.62238"
       sodipodi:rx="32.077225"
       sodipodi:ry="31.21092"
       sodipodi:start="0"
       sodipodi:end="6.2773035"
       sodipodi:open="true"
       d="m 278.26648,948.62238 a 32.077225,31.21092 0 0 1 -32.03006,31.21088 32.077225,31.21092 0 0 1 -32.12425,-31.1191 32.077225,31.21092 0 0 1 31.93558,-31.3024 32.077225,31.21092 0 0 1 32.21817,31.02704" />
    <path
       style="opacity:1;fill:#ffffff;fill-opacity:1;fill-rule:evenodd;stroke:none;stroke-width:2.63712096;stroke-linecap:round;stroke-linejoin:round;stroke-miterlimit:4;stroke-dasharray:none;stroke-dashoffset:0;stroke-opacity:1"
       id="path4240"
       sodipodi:type="arc"
       sodipodi:cx="245.97327"
       sodipodi:cy="949.0791"
       sodipodi:rx="25.145758"
       sodipodi:ry="24.398455"
       sodipodi:start="0"
       sodipodi:end="6.2773035"
       sodipodi:open="true"
       d="m 271.11902,949.0791 a 25.145758,24.398455 0 0 1 -25.10878,24.39843 25.145758,24.398455 0 0 1 -25.18262,-24.32668 25.145758,24.398455 0 0 1 25.03472,-24.46997 25.145758,24.398455 0 0 1 25.25625,24.25472" />
    <path
       style="opacity:1;fill:none;fill-opacity:1;fill-rule:evenodd;stroke:#000000;stroke-width:2.75754189;stroke-linecap:round;stroke-linejoin:round;stroke-miterlimit:4;stroke-dasharray:none;stroke-dashoffset:12.99999905;stroke-opacity:1"
       id="path4259"
       sodipodi:type="arc"
       sodipodi:cx="246.19826"
       sodipodi:cy="949.03888"
       sodipodi:rx="37.263725"
       sodipodi:ry="36.388691"
       sodipodi:start="0"
       sodipodi:end="6.2773035"
       sodipodi:open="true"
       d="m 283.46198,949.03888 a 37.263725,36.388691 0 0 1 -37.20893,36.38865 37.263725,36.388691 0 0 1 -37.31836,-36.28164 37.263725,36.388691 0 0 1 37.09918,-36.49535 37.263725,36.388691 0 0 1 37.42747,36.17431" />
    <path
       style="display:inline;opacity:0.98299997;fill:none;fill-opacity:1;fill-rule:evenodd;stroke:#f6a41b;stroke-width:2.86583281;stroke-linecap:round;stroke-linejoin:round;stroke-miterlimit:4;stroke-dasharray:none;stroke-dashoffset:0;stroke-opacity:1"
       id="path4240-6"
       sodipodi:type="arc"
       sodipodi:cx="246.22459"
       sodipodi:cy="948.58044"
       sodipodi:rx="26.073462"
       sodipodi:ry="25.315823"
       sodipodi:start="0"
       sodipodi:end="6.2773035"
       sodipodi:open="true"
       d="m 272.29806,948.58044 a 26.073462,25.315823 0 0 1 -26.03513,25.3158 26.073462,25.315823 0 0 1 -26.11168,-25.24134 26.073462,25.315823 0 0 1 25.95833,-25.39003 26.073462,25.315823 0 0 1 26.18802,25.16667" />
    <rect
       style="opacity:1;fill:#060406;fill-opacity:1;fill-rule:evenodd;stroke:none;stroke-width:3;stroke-linecap:round;stroke-linejoin:round;stroke-miterlimit:4;stroke-dasharray:none;stroke-dashoffset:12.99999905;stroke-opacity:1"
       id="rect4298"
       width="28.082361"
       height="26.289865"
       x="889.34808"
       y="134.9556"
       transform="matrix(0.37716607,0.92614565,-0.37716607,0.92614565,0,0)" />
    <path
       style="display:inline;opacity:1;fill:#060406;fill-opacity:1;fill-rule:evenodd;stroke:#000000;stroke-width:8.06682587;stroke-linecap:round;stroke-linejoin:round;stroke-miterlimit:4;stroke-dasharray:none;stroke-dashoffset:0;stroke-opacity:1"
       id="path4223-1-3"
       sodipodi:type="arc"
       sodipodi:cx="246.24973"
       sodipodi:cy="949.11218"
       sodipodi:rx="10.519746"
       sodipodi:ry="10.774956"
       sodipodi:start="0"
       sodipodi:end="6.2773035"
       sodipodi:open="true"
       d="m 256.76947,949.11218 a 10.519746,10.774956 0 0 1 -10.50428,10.77495 10.519746,10.774956 0 0 1 -10.53516,-10.74326 10.519746,10.774956 0 0 1 10.47329,-10.80654 10.519746,10.774956 0 0 1 10.56597,10.71148" />
  </g>
</svg>
